<?xml version="1.0" encoding="utf-8"?>
<!-- Generator: Adobe Illustrator 25.1.0, SVG Export Plug-In . SVG Version: 6.00 Build 0)  -->
<svg version="1.1" id="Calque_1" focusable="false" xmlns="http://www.w3.org/2000/svg" xmlns:xlink="http://www.w3.org/1999/xlink"
	 x="0px" y="0px" viewBox="0 0 384 512" style="enable-background:new 0 0 384 512;" xml:space="preserve">
<style type="text/css">
	.st0{fill:#4481EB;}
	.st1{opacity:0.15;fill:#FFFFFF;}
</style>
<path class="st0" d="M192,0v112c44.2,0,80,35.8,80,80s-35.8,80-80,80v240c7.5,0,15-3.4,19.7-10.3C357,291,384,269.4,384,192
	C384,86,298,0,192,0z"/>
<path class="st0" d="M112,192c0,44.2,35.8,80,80,80v240c-7.5,0-15-3.4-19.7-10.3C27,291,0,269.4,0,192C0,86,86,0,192,0v112
	C147.8,112,112,147.8,112,192z"/>
<path class="st1" d="M112,192c0,44.2,35.8,80,80,80v240c-7.5,0-15-3.4-19.7-10.3C27,291,0,269.4,0,192C0,86,86,0,192,0v112
	C147.8,112,112,147.8,112,192z"/>
</svg>
